<svg width="88" height="88" viewBox="0 0 88 88" fill="none" xmlns="http://www.w3.org/2000/svg">
<path d="M46.1745 85.2793L46.1341 85.2866L45.8738 85.415L45.8005 85.4296L45.7491 85.415L45.4888 85.2866C45.4497 85.2744 45.4204 85.2805 45.4008 85.305L45.3861 85.3416L45.3238 86.911L45.3421 86.9843L45.3788 87.032L45.7601 87.3033L45.8151 87.318L45.8591 87.3033L46.2405 87.032L46.2845 86.9733L46.2991 86.911L46.2368 85.3453C46.227 85.3062 46.2063 85.2842 46.1745 85.2793ZM47.1461 84.865L47.0985 84.8723L46.4201 85.2133L46.3835 85.25L46.3725 85.2903L46.4385 86.867L46.4568 86.911L46.4861 86.9366L47.2231 87.2776C47.2696 87.2899 47.305 87.2801 47.3295 87.2483L47.3441 87.197L47.2195 84.9456C47.2073 84.9016 47.1828 84.8748 47.1461 84.865ZM44.5245 84.8723C44.5083 84.8625 44.489 84.8593 44.4706 84.8634C44.4521 84.8675 44.436 84.8786 44.4255 84.8943L44.4035 84.9456L44.2788 87.197C44.2813 87.241 44.302 87.2703 44.3411 87.285L44.3961 87.2776L45.1331 86.9366L45.1698 86.9073L45.1845 86.867L45.2468 85.2903L45.2358 85.2463L45.1991 85.2096L44.5245 84.8723Z" fill="#ED8600"/>
<path d="M44 69.6666C44.9725 69.6666 45.9051 70.053 46.5927 70.7406C47.2804 71.4282 47.6667 72.3609 47.6667 73.3333V77C47.6667 77.9724 47.2804 78.9051 46.5927 79.5927C45.9051 80.2803 44.9725 80.6666 44 80.6666C43.0275 80.6666 42.0949 80.2803 41.4073 79.5927C40.7197 78.9051 40.3333 77.9724 40.3333 77V73.3333C40.3333 72.3609 40.7197 71.4282 41.4073 70.7406C42.0949 70.053 43.0275 69.6666 44 69.6666ZM67.3347 62.15L69.927 64.7423C70.5949 65.4339 70.9645 66.3601 70.9561 67.3215C70.9478 68.2828 70.5622 69.2025 69.8823 69.8823C69.2025 70.5621 68.2829 70.9478 67.3215 70.9561C66.3601 70.9645 65.4339 70.5949 64.7423 69.927L62.15 67.3346C61.4821 66.6431 61.1125 65.7169 61.1209 64.7555C61.1292 63.7941 61.5148 62.8745 62.1947 62.1946C62.8745 61.5148 63.7941 61.1292 64.7555 61.1208C65.7169 61.1125 66.6431 61.4821 67.3347 62.15ZM20.6653 62.15C21.3252 61.4924 22.2106 61.1106 23.1417 61.0821C24.0729 61.0537 24.98 61.3808 25.6787 61.9969C26.3774 62.613 26.8155 63.472 26.9038 64.3994C26.9921 65.3268 26.7242 66.253 26.1543 66.99L25.85 67.3346L23.2577 69.927C22.5978 70.5846 21.7124 70.9664 20.7813 70.9948C19.8501 71.0233 18.9431 70.6962 18.2443 70.0801C17.5456 69.4639 17.1076 68.605 17.0192 67.6776C16.9309 66.7502 17.1988 65.8239 17.7687 65.087L18.073 64.7423L20.6653 62.15ZM44 22C49.8348 22 55.4306 24.3178 59.5564 28.4436C63.6822 32.5694 66 38.1652 66 44C66 49.8347 63.6822 55.4305 59.5564 59.5563C55.4306 63.6821 49.8348 66 44 66C38.1652 66 32.5695 63.6821 28.4437 59.5563C24.3179 55.4305 22 49.8347 22 44C22 38.1652 24.3179 32.5694 28.4437 28.4436C32.5695 24.3178 38.1652 22 44 22ZM14.6667 40.3333C15.6012 40.3344 16.5001 40.6922 17.1797 41.3338C17.8593 41.9753 18.2682 42.8521 18.323 43.7851C18.3777 44.718 18.0742 45.6367 17.4744 46.3534C16.8745 47.07 16.0237 47.5306 15.0957 47.641L14.6667 47.6666H11C10.0654 47.6656 9.16656 47.3078 8.48699 46.6662C7.80742 46.0247 7.39848 45.1478 7.34371 44.2149C7.28894 43.2819 7.59248 42.3633 8.19231 41.6466C8.79214 40.9299 9.64299 40.4694 10.571 40.359L11 40.3333H14.6667ZM77 40.3333C77.9725 40.3333 78.9051 40.7196 79.5927 41.4073C80.2804 42.0949 80.6667 43.0275 80.6667 44C80.6667 44.9724 80.2804 45.9051 79.5927 46.5927C78.9051 47.2803 77.9725 47.6666 77 47.6666H73.3333C72.3609 47.6666 71.4282 47.2803 70.7406 46.5927C70.053 45.9051 69.6667 44.9724 69.6667 44C69.6667 43.0275 70.053 42.0949 70.7406 41.4073C71.4282 40.7196 72.3609 40.3333 73.3333 40.3333H77ZM18.073 18.073C18.7044 17.4417 19.5444 17.0624 20.4355 17.0064C21.3266 16.9504 22.2075 17.2214 22.913 17.7686L23.2577 18.073L25.85 20.6653C26.5076 21.3252 26.8894 22.2106 26.9178 23.1417C26.9463 24.0729 26.6192 24.9799 26.0031 25.6787C25.387 26.3774 24.528 26.8154 23.6006 26.9038C22.6732 26.9921 21.747 26.7242 21.01 26.1543L20.6653 25.85L18.073 23.2576C17.3856 22.57 16.9995 21.6376 16.9995 20.6653C16.9995 19.693 17.3856 18.7606 18.073 18.073ZM69.927 18.073C70.6144 18.7606 71.0006 19.693 71.0006 20.6653C71.0006 21.6376 70.6144 22.57 69.927 23.2576L67.3347 25.85C66.9964 26.2002 66.5918 26.4795 66.1445 26.6717C65.6971 26.8639 65.216 26.965 64.7291 26.9692C64.2423 26.9735 63.7595 26.8807 63.3088 26.6963C62.8582 26.512 62.4488 26.2397 62.1046 25.8954C61.7603 25.5512 61.488 25.1418 61.3037 24.6911C61.1193 24.2405 61.0265 23.7577 61.0308 23.2708C61.035 22.784 61.1361 22.3028 61.3283 21.8555C61.5205 21.4081 61.7998 21.0036 62.15 20.6653L64.7423 18.073C65.4299 17.3856 66.3624 16.9994 67.3347 16.9994C68.3069 16.9994 69.2394 17.3856 69.927 18.073ZM44 7.33331C44.9725 7.33331 45.9051 7.71962 46.5927 8.40725C47.2804 9.09489 47.6667 10.0275 47.6667 11V14.6666C47.6667 15.6391 47.2804 16.5717 46.5927 17.2594C45.9051 17.947 44.9725 18.3333 44 18.3333C43.0275 18.3333 42.0949 17.947 41.4073 17.2594C40.7197 16.5717 40.3333 15.6391 40.3333 14.6666V11C40.3333 10.0275 40.7197 9.09489 41.4073 8.40725C42.0949 7.71962 43.0275 7.33331 44 7.33331Z" fill="#ED8600"/>
</svg>
