<svg width="464" height="459" viewBox="0 0 464 459" fill="none" xmlns="http://www.w3.org/2000/svg">
<rect width="464" height="459" rx="229.5" fill="url(#paint0_linear_342_2)"/>
<path d="M239.847 340.5C205.047 339.9 192.447 299.1 202.047 262.8C209.547 235.5 228.447 208.8 253.047 195C257.847 192.3 262.947 189.6 268.047 187.5C266.547 173.1 261.147 133.5 242.547 132.9C204.147 131.7 170.547 253.8 170.547 330H142.947C142.947 289.8 149.547 246.3 161.247 207.3C174.747 162.9 202.347 100.5 248.547 105.6C283.047 109.5 291.447 156.9 294.747 180.6C301.947 179.7 309.147 179.4 316.347 179.4L316.047 207C309.447 206.7 303.147 207.3 297.447 208.2C297.747 219 297.447 230.7 296.547 241.8C295.347 259.5 292.647 341.7 239.847 340.5ZM226.947 282C225.747 293.4 228.447 311.1 239.847 312.9C254.547 315.3 262.347 292.5 266.247 268.2C269.547 247.5 270.147 225.6 270.147 217.2C244.647 230.7 229.647 255.6 226.947 282Z" fill="white"/>
<defs>
<linearGradient id="paint0_linear_342_2" x1="232" y1="0" x2="232" y2="459" gradientUnits="userSpaceOnUse">
<stop stop-color="#FF4463"/>
<stop offset="1" stop-color="#002654"/>
</linearGradient>
</defs>
</svg>
