<svg width="60" height="60" viewBox="0 0 60 60" fill="none" xmlns="http://www.w3.org/2000/svg">
<path d="M27.29 1.46252L26.165 5.65002C25.415 8.44002 25.49 11.4925 26.34 14.66C27.0084 17.1557 28.2211 19.4725 29.891 21.4439C31.5609 23.4154 33.6466 24.9926 35.9984 26.0624C38.3502 27.1321 40.9096 27.6679 43.493 27.6312C46.0764 27.5945 48.6196 26.9862 50.94 25.85L54.7925 23.97L54.5325 28.245C54.3775 30.83 53.5975 33.395 52.235 36.12L51.545 37.5H7.07004L6.31004 35.635L6.02754 34.915C5.8018 34.3544 5.6016 33.7838 5.42754 33.205C1.85004 19.8675 9.76504 6.16002 23.1 2.58502L27.29 1.46252ZM5.00004 42.5H20V47.5H5.00004V42.5ZM25 42.5H55V47.5H25V42.5ZM42.5 52.5H55V57.5H42.5V52.5ZM5.00004 52.5H37.5V57.5H5.00004V52.5Z" fill="#4FA7FF"/>
</svg>
