<svg width="101" height="45" viewBox="0 0 101 45" fill="none" xmlns="http://www.w3.org/2000/svg">
<path d="M88.375 38.125L78.4013 30.6762L83.325 19.1875L70.7 17.7356L69.4375 5.3L57.9488 10.2237L50.5 0.25L43.0513 10.2237L31.5625 5.3L30.1106 17.925L17.675 19.1875L22.5987 30.6762L12.625 38.125H0V44.4375H101V38.125H88.375ZM25.25 38.125C25.4743 31.5072 28.2007 25.2208 32.8787 20.5345C37.5568 15.8483 43.8384 13.1109 50.4558 12.875C57.0814 13.0884 63.3787 15.8098 68.0743 20.4891C72.7699 25.1683 75.5134 31.456 75.75 38.0808L25.25 38.125Z" fill="#FBBC05"/>
</svg>
